<svg width="1023" height="1023" viewBox="0 0 1023 1023" fill="white"
    xmlns="http://www.w3.org/2000/svg">
    <path d="M1023 0H0V1023H1023V0Z" fill="white" />
    <path
        d="M341.93 62H310V93.93H341.93V62Z M496.93 62H465V93.93H496.93V62Z M558.93 62H527V93.93H558.93V62Z M620.93 62H589V93.93H620.93V62Z M651.93 62H620V93.93H651.93V62Z M713.93 62H682V93.93H713.93V62Z M341.93 93H310V124.93H341.93V93Z M496.93 93H465V124.93H496.93V93Z M558.93 93H527V124.93H558.93V93Z M589.93 93H558V124.93H589.93V93Z M682.93 93H651V124.93H682.93V93Z M341.93 124H310V155.93H341.93V124Z M372.93 124H341V155.93H372.93V124Z M496.93 124H465V155.93H496.93V124Z M558.93 124H527V155.93H558.93V124Z M589.93 124H558V155.93H589.93V124Z M682.93 124H651V155.93H682.93V124Z M713.93 124H682V155.93H713.93V124Z M403.93 155H372V186.93H403.93V155Z M434.93 155H403V186.93H434.93V155Z M527.93 155H496V186.93H527.93V155Z M558.93 155H527V186.93H558.93V155Z M589.93 155H558V186.93H589.93V155Z M620.93 155H589V186.93H620.93V155Z M682.93 155H651V186.93H682.93V155Z M403.93 186H372V217.93H403.93V186Z M434.93 186H403V217.93H434.93V186Z M496.93 186H465V217.93H496.93V186Z M527.93 186H496V217.93H527.93V186Z M651.93 186H620V217.93H651.93V186Z M682.93 186H651V217.93H682.93V186Z M713.93 186H682V217.93H713.93V186Z M341.93 217H310V248.93H341.93V217Z M372.93 217H341V248.93H372.93V217Z M403.93 217H372V248.93H403.93V217Z M434.93 217H403V248.93H434.93V217Z M496.93 217H465V248.93H496.93V217Z M527.93 217H496V248.93H527.93V217Z M651.93 217H620V248.93H651.93V217Z M713.93 217H682V248.93H713.93V217Z M341.93 248H310V279.93H341.93V248Z M403.93 248H372V279.93H403.93V248Z M465.93 248H434V279.93H465.93V248Z M527.93 248H496V279.93H527.93V248Z M589.93 248H558V279.93H589.93V248Z M651.93 248H620V279.93H651.93V248Z M713.93 248H682V279.93H713.93V248Z M341.93 279H310V310.93H341.93V279Z M403.93 279H372V310.93H403.93V279Z M465.93 279H434V310.93H465.93V279Z M496.93 279H465V310.93H496.93V279Z M558.93 279H527V310.93H558.93V279Z M682.93 279H651V310.93H682.93V279Z M713.93 279H682V310.93H713.93V279Z M155.93 310H124V341.93H155.93V310Z M186.93 310H155V341.93H186.93V310Z M217.93 310H186V341.93H217.93V310Z M279.93 310H248V341.93H279.93V310Z M341.93 310H310V341.93H341.93V310Z M372.93 310H341V341.93H372.93V310Z M403.93 310H372V341.93H403.93V310Z M465.93 310H434V341.93H465.93V310Z M558.93 310H527V341.93H558.93V310Z M589.93 310H558V341.93H589.93V310Z M651.93 310H620V341.93H651.93V310Z M682.93 310H651V341.93H682.93V310Z M713.93 310H682V341.93H713.93V310Z M744.93 310H713V341.93H744.93V310Z M775.93 310H744V341.93H775.93V310Z M806.93 310H775V341.93H806.93V310Z M899.93 310H868V341.93H899.93V310Z M930.93 310H899V341.93H930.93V310Z M961.93 310H930V341.93H961.93V310Z M186.93 341H155V372.93H186.93V341Z M310.93 341H279V372.93H310.93V341Z M341.93 341H310V372.93H341.93V341Z M434.93 341H403V372.93H434.93V341Z M465.93 341H434V372.93H465.93V341Z M496.93 341H465V372.93H496.93V341Z M589.93 341H558V372.93H589.93V341Z M744.93 341H713V372.93H744.93V341Z M837.93 341H806V372.93H837.93V341Z M961.93 341H930V372.93H961.93V341Z M124.93 372H93V403.93H124.93V372Z M186.93 372H155V403.93H186.93V372Z M217.93 372H186V403.93H217.93V372Z M279.93 372H248V403.93H279.93V372Z M310.93 372H279V403.93H310.93V372Z M434.93 372H403V403.93H434.93V372Z M465.93 372H434V403.93H465.93V372Z M558.93 372H527V403.93H558.93V372Z M620.93 372H589V403.93H620.93V372Z M651.93 372H620V403.93H651.93V372Z M713.93 372H682V403.93H713.93V372Z M744.93 372H713V403.93H744.93V372Z M775.93 372H744V403.93H775.93V372Z M868.93 372H837V403.93H868.93V372Z M899.93 372H868V403.93H899.93V372Z M186.93 403H155V434.93H186.93V403Z M217.93 403H186V434.93H217.93V403Z M248.93 403H217V434.93H248.93V403Z M310.93 403H279V434.93H310.93V403Z M434.93 403H403V434.93H434.93V403Z M465.93 403H434V434.93H465.93V403Z M527.93 403H496V434.93H527.93V403Z M558.93 403H527V434.93H558.93V403Z M589.93 403H558V434.93H589.93V403Z M620.93 403H589V434.93H620.93V403Z M744.93 403H713V434.93H744.93V403Z M775.93 403H744V434.93H775.93V403Z M806.93 403H775V434.93H806.93V403Z M837.93 403H806V434.93H837.93V403Z M868.93 403H837V434.93H868.93V403Z M930.93 403H899V434.93H930.93V403Z M93.93 434H62V465.93H93.93V434Z M217.93 434H186V465.93H217.93V434Z M248.93 434H217V465.93H248.93V434Z M279.93 434H248V465.93H279.93V434Z M372.93 434H341V465.93H372.93V434Z M496.93 434H465V465.93H496.93V434Z M558.93 434H527V465.93H558.93V434Z M589.93 434H558V465.93H589.93V434Z M620.93 434H589V465.93H620.93V434Z M651.93 434H620V465.93H651.93V434Z M744.93 434H713V465.93H744.93V434Z M806.93 434H775V465.93H806.93V434Z M868.93 434H837V465.93H868.93V434Z M899.93 434H868V465.93H899.93V434Z M930.93 434H899V465.93H930.93V434Z M961.93 434H930V465.93H961.93V434Z M155.93 465H124V496.93H155.93V465Z M248.93 465H217V496.93H248.93V465Z M465.93 465H434V496.93H465.93V465Z M496.93 465H465V496.93H496.93V465Z M620.93 465H589V496.93H620.93V465Z M651.93 465H620V496.93H651.93V465Z M682.93 465H651V496.93H682.93V465Z M713.93 465H682V496.93H713.93V465Z M744.93 465H713V496.93H744.93V465Z M775.93 465H744V496.93H775.93V465Z M837.93 465H806V496.93H837.93V465Z M868.93 465H837V496.93H868.93V465Z M930.93 465H899V496.93H930.93V465Z M961.93 465H930V496.93H961.93V465Z M124.93 496H93V527.93H124.93V496Z M217.93 496H186V527.93H217.93V496Z M248.93 496H217V527.93H248.93V496Z M279.93 496H248V527.93H279.93V496Z M372.93 496H341V527.93H372.93V496Z M465.93 496H434V527.93H465.93V496Z M496.93 496H465V527.93H496.93V496Z M527.93 496H496V527.93H527.93V496Z M558.93 496H527V527.93H558.93V496Z M589.93 496H558V527.93H589.93V496Z M775.93 496H744V527.93H775.93V496Z M806.93 496H775V527.93H806.93V496Z M186.93 527H155V558.93H186.93V527Z M217.93 527H186V558.93H217.93V527Z M248.93 527H217V558.93H248.93V527Z M310.93 527H279V558.93H310.93V527Z M434.93 527H403V558.93H434.93V527Z M527.93 527H496V558.93H527.93V527Z M620.93 527H589V558.93H620.93V527Z M651.93 527H620V558.93H651.93V527Z M682.93 527H651V558.93H682.93V527Z M713.93 527H682V558.93H713.93V527Z M744.93 527H713V558.93H744.93V527Z M775.93 527H744V558.93H775.93V527Z M837.93 527H806V558.93H837.93V527Z M868.93 527H837V558.93H868.93V527Z M930.93 527H899V558.93H930.93V527Z M961.93 527H930V558.93H961.93V527Z M93.93 558H62V589.93H93.93V558Z M186.93 558H155V589.93H186.93V558Z M217.93 558H186V589.93H217.93V558Z M279.93 558H248V589.93H279.93V558Z M372.93 558H341V589.93H372.93V558Z M434.93 558H403V589.93H434.93V558Z M465.93 558H434V589.93H465.93V558Z M496.93 558H465V589.93H496.93V558Z M527.93 558H496V589.93H527.93V558Z M589.93 558H558V589.93H589.93V558Z M682.93 558H651V589.93H682.93V558Z M775.93 558H744V589.93H775.93V558Z M806.93 558H775V589.93H806.93V558Z M868.93 558H837V589.93H868.93V558Z M899.93 558H868V589.93H899.93V558Z M930.93 558H899V589.93H930.93V558Z M93.93 589H62V620.93H93.93V589Z M186.93 589H155V620.93H186.93V589Z M248.93 589H217V620.93H248.93V589Z M310.93 589H279V620.93H310.93V589Z M341.93 589H310V620.93H341.93V589Z M403.93 589H372V620.93H403.93V589Z M465.93 589H434V620.93H465.93V589Z M589.93 589H558V620.93H589.93V589Z M620.93 589H589V620.93H620.93V589Z M713.93 589H682V620.93H713.93V589Z M744.93 589H713V620.93H744.93V589Z M806.93 589H775V620.93H806.93V589Z M837.93 589H806V620.93H837.93V589Z M899.93 589H868V620.93H899.93V589Z M930.93 589H899V620.93H930.93V589Z M961.93 589H930V620.93H961.93V589Z M93.93 620H62V651.93H93.93V620Z M155.93 620H124V651.93H155.93V620Z M186.93 620H155V651.93H186.93V620Z M248.93 620H217V651.93H248.93V620Z M279.93 620H248V651.93H279.93V620Z M310.93 620H279V651.93H310.93V620Z M496.93 620H465V651.93H496.93V620Z M527.93 620H496V651.93H527.93V620Z M620.93 620H589V651.93H620.93V620Z M651.93 620H620V651.93H651.93V620Z M682.93 620H651V651.93H682.93V620Z M775.93 620H744V651.93H775.93V620Z M837.93 620H806V651.93H837.93V620Z M868.93 620H837V651.93H868.93V620Z M93.93 651H62V682.93H93.93V651Z M155.93 651H124V682.93H155.93V651Z M248.93 651H217V682.93H248.93V651Z M310.93 651H279V682.93H310.93V651Z M403.93 651H372V682.93H403.93V651Z M434.93 651H403V682.93H434.93V651Z M496.93 651H465V682.93H496.93V651Z M589.93 651H558V682.93H589.93V651Z M682.93 651H651V682.93H682.93V651Z M713.93 651H682V682.93H713.93V651Z M775.93 651H744V682.93H775.93V651Z M806.93 651H775V682.93H806.93V651Z M837.93 651H806V682.93H837.93V651Z M930.93 651H899V682.93H930.93V651Z M961.93 651H930V682.93H961.93V651Z M93.93 682H62V713.93H93.93V682Z M279.93 682H248V713.93H279.93V682Z M403.93 682H372V713.93H403.93V682Z M496.93 682H465V713.93H496.93V682Z M527.93 682H496V713.93H527.93V682Z M558.93 682H527V713.93H558.93V682Z M620.93 682H589V713.93H620.93V682Z M651.93 682H620V713.93H651.93V682Z M682.93 682H651V713.93H682.93V682Z M713.93 682H682V713.93H713.93V682Z M744.93 682H713V713.93H744.93V682Z M775.93 682H744V713.93H775.93V682Z M806.93 682H775V713.93H806.93V682Z M837.93 682H806V713.93H837.93V682Z M899.93 682H868V713.93H899.93V682Z M930.93 682H899V713.93H930.93V682Z M341.93 713H310V744.93H341.93V713Z M372.93 713H341V744.93H372.93V713Z M465.93 713H434V744.93H465.93V713Z M496.93 713H465V744.93H496.93V713Z M527.93 713H496V744.93H527.93V713Z M558.93 713H527V744.93H558.93V713Z M589.93 713H558V744.93H589.93V713Z M620.93 713H589V744.93H620.93V713Z M713.93 713H682V744.93H713.93V713Z M837.93 713H806V744.93H837.93V713Z M868.93 713H837V744.93H868.93V713Z M961.93 713H930V744.93H961.93V713Z M372.93 744H341V775.93H372.93V744Z M403.93 744H372V775.93H403.93V744Z M434.93 744H403V775.93H434.93V744Z M496.93 744H465V775.93H496.93V744Z M589.93 744H558V775.93H589.93V744Z M620.93 744H589V775.93H620.93V744Z M682.93 744H651V775.93H682.93V744Z M713.93 744H682V775.93H713.93V744Z M775.93 744H744V775.93H775.93V744Z M837.93 744H806V775.93H837.93V744Z M403.93 775H372V806.93H403.93V775Z M496.93 775H465V806.93H496.93V775Z M558.93 775H527V806.93H558.93V775Z M682.93 775H651V806.93H682.93V775Z M713.93 775H682V806.93H713.93V775Z M837.93 775H806V806.93H837.93V775Z M868.93 775H837V806.93H868.93V775Z M341.93 806H310V837.93H341.93V806Z M403.93 806H372V837.93H403.93V806Z M434.93 806H403V837.93H434.93V806Z M496.93 806H465V837.93H496.93V806Z M527.93 806H496V837.93H527.93V806Z M558.93 806H527V837.93H558.93V806Z M620.93 806H589V837.93H620.93V806Z M651.93 806H620V837.93H651.93V806Z M713.93 806H682V837.93H713.93V806Z M744.93 806H713V837.93H744.93V806Z M775.93 806H744V837.93H775.93V806Z M806.93 806H775V837.93H806.93V806Z M837.93 806H806V837.93H837.93V806Z M868.93 806H837V837.93H868.93V806Z M899.93 806H868V837.93H899.93V806Z M341.93 837H310V868.93H341.93V837Z M403.93 837H372V868.93H403.93V837Z M434.93 837H403V868.93H434.93V837Z M527.93 837H496V868.93H527.93V837Z M589.93 837H558V868.93H589.93V837Z M682.93 837H651V868.93H682.93V837Z M713.93 837H682V868.93H713.93V837Z M744.93 837H713V868.93H744.93V837Z M806.93 837H775V868.93H806.93V837Z M868.93 837H837V868.93H868.93V837Z M899.93 837H868V868.93H899.93V837Z M341.93 868H310V899.93H341.93V868Z M372.93 868H341V899.93H372.93V868Z M434.93 868H403V899.93H434.93V868Z M465.93 868H434V899.93H465.93V868Z M496.93 868H465V899.93H496.93V868Z M682.93 868H651V899.93H682.93V868Z M713.93 868H682V899.93H713.93V868Z M744.93 868H713V899.93H744.93V868Z M775.93 868H744V899.93H775.93V868Z M806.93 868H775V899.93H806.93V868Z M837.93 868H806V899.93H837.93V868Z M899.93 868H868V899.93H899.93V868Z M930.93 868H899V899.93H930.93V868Z M372.93 899H341V930.93H372.93V899Z M403.93 899H372V930.93H403.93V899Z M465.93 899H434V930.93H465.93V899Z M589.93 899H558V930.93H589.93V899Z M620.93 899H589V930.93H620.93V899Z M682.93 899H651V930.93H682.93V899Z M744.93 899H713V930.93H744.93V899Z M837.93 899H806V930.93H837.93V899Z M868.93 899H837V930.93H868.93V899Z M930.93 899H899V930.93H930.93V899Z M372.93 930H341V961.93H372.93V930Z M465.93 930H434V961.93H465.93V930Z M496.93 930H465V961.93H496.93V930Z M527.93 930H496V961.93H527.93V930Z M558.93 930H527V961.93H558.93V930Z M651.93 930H620V961.93H651.93V930Z M837.93 930H806V961.93H837.93V930Z M868.93 930H837V961.93H868.93V930Z M899.93 930H868V961.93H899.93V930Z M62 62V279H279V62H62ZM248 248H93V93H248V248Z M744 62V279H961V62H744ZM930 248H775V93H930V248Z M62 744V961H279V744H62ZM248 930H93V775H248V930Z M217 124H124V217H217V124Z M899 124H806V217H899V124Z M217 806H124V899H217V806Z"
        fill="#3973AA" />
</svg>